<svg width="16" height="16" viewBox="0 0 16 16" fill="none" xmlns="http://www.w3.org/2000/svg">
<g id="Objects / face">
<rect width="16" height="16" fill="white" fill-opacity="0.01"/>
<path id="Vector" fill-rule="evenodd" clip-rule="evenodd" d="M7.9999 0.935303C4.09837 0.935303 0.935547 4.09813 0.935547 7.99965C0.935547 11.9012 4.09837 15.0641 7.9999 15.0641C11.9014 15.0641 15.0642 11.9012 15.0642 7.99965C15.0642 4.09813 11.9014 0.935303 7.9999 0.935303ZM1.94889 7.99965C1.94889 4.65778 4.65802 1.94863 7.9999 1.94863C11.3418 1.94863 14.0509 4.65778 14.0509 7.99965C14.0509 11.3415 11.3418 14.0507 7.9999 14.0507C4.65802 14.0507 1.94889 11.3415 1.94889 7.99965ZM5.3733 9.82817C5.20479 9.58658 4.87234 9.52734 4.63075 9.69586C4.38916 9.86437 4.32993 10.1968 4.49844 10.4384C5.26854 11.5425 6.54969 12.2666 8.00004 12.2666C9.45039 12.2666 10.7315 11.5425 11.5017 10.4384C11.6702 10.1968 11.6109 9.86437 11.3693 9.69586C11.1278 9.52734 10.7953 9.58658 10.6268 9.82817C10.0476 10.6585 9.08701 11.2 8.00004 11.2C6.91307 11.2 5.95247 10.6585 5.3733 9.82817ZM5.73337 7.3066C6.24883 7.3066 6.6667 6.88864 6.6667 6.37326C6.6667 5.85787 6.24883 5.43993 5.73337 5.43993C5.21791 5.43993 4.80003 5.85787 4.80003 6.37326C4.80003 6.88864 5.21791 7.3066 5.73337 7.3066ZM11.2 6.37326C11.2 6.88864 10.7822 7.3066 10.2667 7.3066C9.75124 7.3066 9.33336 6.88864 9.33336 6.37326C9.33336 5.85787 9.75124 5.43993 10.2667 5.43993C10.7822 5.43993 11.2 5.85787 11.2 6.37326Z" fill="#1C2024"/>
</g>
</svg>
