<svg width="75" height="14" viewBox="0 0 75 14" fill="none" xmlns="http://www.w3.org/2000/svg">
<path d="M2.94239 13.7678L0 2.65465H2.95239L4.59372 10.6994H4.77387L6.70544 2.65465H9.48769L11.4293 10.6994H11.6094L13.2507 2.65465H16.1431L13.2107 13.7678H10.1082L8.1366 6.01586H7.95645L6.00487 13.7678H2.94239Z" fill="#101D46"/>
<path d="M22.6083 14C21.4941 14 20.5333 13.7678 19.726 13.3035C18.9253 12.8325 18.3082 12.1663 17.8745 11.305C17.4408 10.4436 17.224 9.41745 17.224 8.22639V8.21629C17.224 7.03869 17.4375 6.01586 17.8645 5.1478C18.2982 4.27974 18.9087 3.60683 19.696 3.12906C20.4899 2.65129 21.4207 2.4124 22.4882 2.4124C23.5624 2.4124 24.4899 2.64456 25.2705 3.10887C26.0511 3.57318 26.6516 4.22254 27.0719 5.05696C27.4923 5.89137 27.7025 6.87046 27.7025 7.99423V8.91276H18.6852V7.06561H26.3013L24.9302 8.81182V7.63086C24.9302 6.96467 24.8268 6.40952 24.62 5.96539C24.4198 5.52127 24.1396 5.18818 23.7793 4.96611C23.4257 4.73732 23.012 4.62293 22.5383 4.62293C22.0712 4.62293 21.6542 4.74069 21.2873 4.97621C20.927 5.205 20.6401 5.54482 20.4266 5.99567C20.2197 6.4398 20.1163 6.98486 20.1163 7.63086V8.82192C20.1163 9.44773 20.2197 9.9827 20.4266 10.4268C20.6334 10.8709 20.927 11.2108 21.3073 11.4463C21.6876 11.6818 22.1413 11.7996 22.6684 11.7996C23.0954 11.7996 23.459 11.7356 23.7593 11.6078C24.0595 11.4799 24.2997 11.3319 24.4798 11.1637C24.6667 10.9887 24.7934 10.8306 24.8602 10.6893L24.8902 10.6287H27.6124L27.5924 10.7296C27.5056 11.0795 27.3488 11.4463 27.122 11.8298C26.8951 12.2067 26.5816 12.56 26.1812 12.8897C25.7876 13.2194 25.2938 13.4886 24.7 13.6972C24.1129 13.8991 23.4157 14 22.6083 14Z" fill="#101D46"/>
<path d="M30.0944 13.7678V2.65465H33.0168V4.37058H33.1969C33.4505 3.76496 33.8441 3.28719 34.3779 2.93727C34.9116 2.58736 35.5722 2.4124 36.3595 2.4124C37.5871 2.4124 38.5212 2.77577 39.1618 3.50252C39.8089 4.22254 40.1325 5.24874 40.1325 6.58111V13.7678H37.2102V7.2473C37.2102 6.45999 37.0467 5.86446 36.7198 5.46071C36.3928 5.05696 35.8824 4.85508 35.1885 4.85508C34.7415 4.85508 34.3545 4.95938 34.0276 5.16799C33.7073 5.36986 33.4571 5.65585 33.277 6.02596C33.1035 6.39606 33.0168 6.83345 33.0168 7.33814V13.7678H30.0944Z" fill="#101D46"/>
<path d="M61.2488 13.8082C59.9144 13.8082 58.9537 13.5727 58.3665 13.1017C57.7794 12.6239 57.4858 11.8467 57.4858 10.77V4.87527H55.7844V2.65465H57.4858V0H60.4382V2.65465H62.71V4.87527H60.4382V10.0937C60.4382 10.5917 60.5483 10.9584 60.7685 11.1939C60.9953 11.4227 61.3556 11.5371 61.8493 11.5371C62.0362 11.5371 62.1896 11.5338 62.3097 11.527C62.4365 11.5136 62.5699 11.5001 62.71 11.4867V13.677C62.5299 13.7106 62.313 13.7409 62.0595 13.7678C61.806 13.7948 61.5357 13.8082 61.2488 13.8082Z" fill="#101D46"/>
<path d="M69.9059 14C68.7916 14 67.8308 13.7678 67.0235 13.3035C66.2229 12.8325 65.6057 12.1663 65.172 11.305C64.7383 10.4436 64.5215 9.41745 64.5215 8.22639V8.21629C64.5215 7.03869 64.735 6.01586 65.162 5.1478C65.5957 4.27974 66.2062 3.60683 66.9935 3.12906C67.7875 2.65129 68.7182 2.4124 69.7858 2.4124C70.86 2.4124 71.7874 2.64456 72.568 3.10887C73.3487 3.57318 73.9491 4.22254 74.3695 5.05696C74.7898 5.89137 75 6.87046 75 7.99423V8.91276H65.9827V7.06561H73.5989L72.2278 8.81182V7.63086C72.2278 6.96467 72.1243 6.40952 71.9175 5.96539C71.7173 5.52127 71.4371 5.18818 71.0768 4.96611C70.7232 4.73732 70.3095 4.62293 69.8358 4.62293C69.3688 4.62293 68.9518 4.74069 68.5848 4.97621C68.2245 5.205 67.9376 5.54482 67.7241 5.99567C67.5173 6.4398 67.4138 6.98486 67.4138 7.63086V8.82192C67.4138 9.44773 67.5173 9.9827 67.7241 10.4268C67.9309 10.8709 68.2245 11.2108 68.6048 11.4463C68.9851 11.6818 69.4388 11.7996 69.9659 11.7996C70.3929 11.7996 70.7566 11.7356 71.0568 11.6078C71.357 11.4799 71.5972 11.3319 71.7774 11.1637C71.9642 10.9887 72.091 10.8306 72.1577 10.6893L72.1877 10.6287H74.9099L74.8899 10.7296C74.8032 11.0795 74.6464 11.4463 74.4195 11.8298C74.1927 12.2067 73.8791 12.56 73.4788 12.8897C73.0851 13.2194 72.5914 13.4886 71.9976 13.6972C71.4104 13.8991 70.7132 14 69.9059 14Z" fill="#101D46"/>
<path d="M44.2 8C44.2 5.34903 46.349 3.2 49 3.2C51.651 3.2 53.8 5.34903 53.8 8C53.8 10.651 51.651 12.8 49 12.8H44.2V8Z" fill="white"/>
<path d="M44.2 8C44.2 5.34903 46.349 3.2 49 3.2C51.651 3.2 53.8 5.34903 53.8 8C53.8 10.651 51.651 12.8 49 12.8H44.2V8Z" stroke="#101D46" stroke-width="2.4"/>
</svg>
